G04 ================== begin FILE IDENTIFICATION RECORD ==================*
G04 Layout Name:  F:/MOTHER/PCB/MOTHER_BOARD-ROA.brd*
G04 Film Name:    BOTTOM*
G04 File Format:  Gerber RS274X*
G04 File Origin:  Cadence Allegro 16.3-p003*
G04 Origin Date:  Mon Dec 16 19:00:39 2013*
G04 *
G04 Layer:  VIA CLASS/BOTTOM*
G04 Layer:  PIN/BOTTOM*
G04 Layer:  ETCH/BOTTOM*
G04 Layer:  BOARD GEOMETRY/OUTLINE*
G04 *
G04 Offset:    (0.0000 0.0000)*
G04 Mirror:    No*
G04 Mode:      Positive*
G04 Rotation:  0*
G04 FullContactRelief:  No*
G04 UndefLineWidth:     0.1270*
G04 ================== end FILE IDENTIFICATION RECORD ====================*
%FSLAX55Y55*MOMM*%
%IR0*IPPOS*OFA0.00000B0.00000*MIA0B0*SFA1.00000B1.00000*%
%ADD14C,4.*%
%ADD11C,1.6*%
%ADD10C,8.*%
%ADD12C,7.4*%
%ADD13R,1.6X1.6*%
%ADD15C,.127*%
%ADD17C,5.0004*%
%ADD16C,9.0004*%
G75*
%LPD*%
G75*
G36*
G01X2450000Y-16444920D02*
G02X2444920Y-16450000I-5080J0D01*
G01X-2444920D01*
G02X-2450000Y-16444920I0J5080D01*
G01Y16444920D01*
G02X-2444920Y16450000I5080J0D01*
G01X2444920D01*
G02X2450000Y16444920I0J-5080D01*
G01Y-16444920D01*
G37*
%LPC*%
G75*
G36*
G01X1832200Y4257960D02*
G03X1813800I-9200J-4302D01*
G02X1640960Y4430800I-117800J55040D01*
G03Y4449200I-4302J9200D01*
G02Y4684800I55040J117800D01*
G03Y4703200I-4302J9200D01*
G02Y4938800I55040J117800D01*
G03Y4957200I-4302J9200D01*
G02Y5192800I55040J117800D01*
G03Y5211200I-4302J9200D01*
G02Y5446800I55040J117800D01*
G03Y5465200I-4302J9200D01*
G02Y5700800I55040J117800D01*
G03Y5719200I-4302J9200D01*
G02Y5954800I55040J117800D01*
G03Y5973200I-4302J9200D01*
G02Y6208800I55040J117800D01*
G03Y6227200I-4302J9200D01*
G02Y6462800I55040J117800D01*
G03Y6481200I-4302J9200D01*
G02Y6716800I55040J117800D01*
G03Y6735200I-4302J9200D01*
G02Y6970800I55040J117800D01*
G03Y6989200I-4302J9200D01*
G02Y7224800I55040J117800D01*
G03Y7243200I-4302J9200D01*
G02Y7478800I55040J117800D01*
G03Y7497200I-4302J9200D01*
G02Y7732800I55040J117800D01*
G03Y7751200I-4302J9200D01*
G02Y7986800I55040J117800D01*
G03Y8005200I-4302J9200D01*
G02X1813800Y8178040I55040J117800D01*
G03X1832200I9200J4302D01*
G02X2067800I117800J-55040D01*
G03X2086200I9200J4302D01*
G02X2259040Y8005200I117800J-55040D01*
G03Y7986800I4302J-9200D01*
G02Y7751200I-55040J-117800D01*
G03Y7732800I4302J-9200D01*
G02Y7497200I-55040J-117800D01*
G03Y7478800I4302J-9200D01*
G02Y7243200I-55040J-117800D01*
G03Y7224800I4302J-9200D01*
G02Y6989200I-55040J-117800D01*
G03Y6970800I4302J-9200D01*
G02Y6735200I-55040J-117800D01*
G03Y6716800I4302J-9200D01*
G02Y6481200I-55040J-117800D01*
G03Y6462800I4302J-9200D01*
G02Y6227200I-55040J-117800D01*
G03Y6208800I4302J-9200D01*
G02Y5973200I-55040J-117800D01*
G03Y5954800I4302J-9200D01*
G02Y5719200I-55040J-117800D01*
G03Y5700800I4302J-9200D01*
G02Y5465200I-55040J-117800D01*
G03Y5446800I4302J-9200D01*
G02Y5211200I-55040J-117800D01*
G03Y5192800I4302J-9200D01*
G02Y4957200I-55040J-117800D01*
G03Y4938800I4302J-9200D01*
G02Y4703200I-55040J-117800D01*
G03Y4684800I4302J-9200D01*
G02Y4449200I-55040J-117800D01*
G03Y4430800I4302J-9200D01*
G02X2086200Y4257960I-55040J-117800D01*
G03X2067800I-9200J-4302D01*
G02X1832200I-117800J55040D01*
G37*
G36*
G01Y-8178040D02*
G03X1813800I-9200J-4302D01*
G02X1640960Y-8005200I-117800J55040D01*
G03Y-7986800I-4302J9200D01*
G02Y-7751200I55040J117800D01*
G03Y-7732800I-4302J9200D01*
G02Y-7497200I55040J117800D01*
G03Y-7478800I-4302J9200D01*
G02Y-7243200I55040J117800D01*
G03Y-7224800I-4302J9200D01*
G02Y-6989200I55040J117800D01*
G03Y-6970800I-4302J9200D01*
G02Y-6735200I55040J117800D01*
G03Y-6716800I-4302J9200D01*
G02Y-6481200I55040J117800D01*
G03Y-6462800I-4302J9200D01*
G02Y-6227200I55040J117800D01*
G03Y-6208800I-4302J9200D01*
G02Y-5973200I55040J117800D01*
G03Y-5954800I-4302J9200D01*
G02Y-5719200I55040J117800D01*
G03Y-5700800I-4302J9200D01*
G02Y-5465200I55040J117800D01*
G03Y-5446800I-4302J9200D01*
G02Y-5211200I55040J117800D01*
G03Y-5192800I-4302J9200D01*
G02Y-4957200I55040J117800D01*
G03Y-4938800I-4302J9200D01*
G02Y-4703200I55040J117800D01*
G03Y-4684800I-4302J9200D01*
G02Y-4449200I55040J117800D01*
G03Y-4430800I-4302J9200D01*
G02X1813800Y-4257960I55040J117800D01*
G03X1832200I9200J4302D01*
G02X2067800I117800J-55040D01*
G03X2086200I9200J4302D01*
G02X2259040Y-4430800I117800J-55040D01*
G03Y-4449200I4302J-9200D01*
G02Y-4684800I-55040J-117800D01*
G03Y-4703200I4302J-9200D01*
G02Y-4938800I-55040J-117800D01*
G03Y-4957200I4302J-9200D01*
G02Y-5192800I-55040J-117800D01*
G03Y-5211200I4302J-9200D01*
G02Y-5446800I-55040J-117800D01*
G03Y-5465200I4302J-9200D01*
G02Y-5700800I-55040J-117800D01*
G03Y-5719200I4302J-9200D01*
G02Y-5954800I-55040J-117800D01*
G03Y-5973200I4302J-9200D01*
G02Y-6208800I-55040J-117800D01*
G03Y-6227200I4302J-9200D01*
G02Y-6462800I-55040J-117800D01*
G03Y-6481200I4302J-9200D01*
G02Y-6716800I-55040J-117800D01*
G03Y-6735200I4302J-9200D01*
G02Y-6970800I-55040J-117800D01*
G03Y-6989200I4302J-9200D01*
G02Y-7224800I-55040J-117800D01*
G03Y-7243200I4302J-9200D01*
G02Y-7478800I-55040J-117800D01*
G03Y-7497200I4302J-9200D01*
G02Y-7732800I-55040J-117800D01*
G03Y-7751200I4302J-9200D01*
G02Y-7986800I-55040J-117800D01*
G03Y-8005200I4302J-9200D01*
G02X2086200Y-8178040I-55040J-117800D01*
G03X2067800I-9200J-4302D01*
G02X1832200I-117800J55040D01*
G37*
G36*
G01X-371800Y14467960D02*
G03X-390200I-9200J-4302D01*
G02Y14578040I-117800J55040D01*
G03X-371800I9200J4302D01*
G02X-309040Y14640800I117800J-55040D01*
G03Y14659200I-4302J9200D01*
G02X-136200Y14832040I55040J117800D01*
G03X-117800I9200J4302D01*
G02X117800I117800J-55040D01*
G03X136200I9200J4302D01*
G02X309040Y14659200I117800J-55040D01*
G03Y14640800I4302J-9200D01*
G02X359570Y14598900I-55042J-117797D01*
G03X377980Y14604830I8251J5927D01*
G01Y14653020D01*
X638020D01*
Y14392980D01*
X377980D01*
Y14441170D01*
G03X359570Y14447100I-10159J3D01*
G02X136200Y14467960I-105571J75898D01*
G03X117800I-9200J-4302D01*
G02X-117800I-117800J55040D01*
G03X-136200I-9200J-4302D01*
G02X-371800I-117800J55040D01*
G37*
G36*
G01Y13467960D02*
G03X-390200I-9200J-4302D01*
G02Y13578040I-117800J55040D01*
G03X-371800I9200J4302D01*
G02X-309040Y13640800I117800J-55040D01*
G03Y13659200I-4302J9200D01*
G02X-136200Y13832040I55040J117800D01*
G03X-117800I9200J4302D01*
G02X117800I117800J-55040D01*
G03X136200I9200J4302D01*
G02X309040Y13659200I117800J-55040D01*
G03Y13640800I4302J-9200D01*
G02X359570Y13598900I-55042J-117797D01*
G03X377980Y13604830I8251J5927D01*
G01Y13653020D01*
X638020D01*
Y13392980D01*
X377980D01*
Y13441170D01*
G03X359570Y13447100I-10159J3D01*
G02X136200Y13467960I-105571J75898D01*
G03X117800I-9200J-4302D01*
G02X-117800I-117800J55040D01*
G03X-136200I-9200J-4302D01*
G02X-371800I-117800J55040D01*
G37*
G54D17*
X1920000Y-12750000D03*
Y-3750000D03*
Y3750000D03*
Y12750000D03*
G54D16*
X-1000000Y-1000000D03*
%LPD*%
G75*
G54D10*
X-1000000Y-1000000D03*
Y1000000D03*
G54D11*
X-508000Y13777000D03*
Y13523000D03*
Y14777000D03*
Y14523000D03*
X-254000Y13777000D03*
Y13523000D03*
X0Y13777000D03*
Y13523000D03*
X254000Y13777000D03*
Y13523000D03*
X508000Y13777000D03*
X-254000Y14777000D03*
Y14523000D03*
X0Y14777000D03*
Y14523000D03*
X254000Y14777000D03*
Y14523000D03*
X508000Y14777000D03*
X2204000Y-12187000D03*
Y-11933000D03*
Y-11679000D03*
X1950000Y-12187000D03*
Y-11933000D03*
Y-11679000D03*
X1696000Y-12187000D03*
Y-11933000D03*
Y-11679000D03*
X2204000Y-11425000D03*
Y-11171000D03*
Y-10917000D03*
Y-10663000D03*
X1950000Y-11425000D03*
Y-11171000D03*
Y-10917000D03*
Y-10663000D03*
X1696000Y-11425000D03*
Y-11171000D03*
Y-10917000D03*
Y-10663000D03*
X2204000Y-10409000D03*
Y-10155000D03*
Y-9901000D03*
Y-9647000D03*
X1950000Y-10409000D03*
Y-10155000D03*
Y-9901000D03*
Y-9647000D03*
X1696000Y-10409000D03*
Y-10155000D03*
Y-9901000D03*
Y-9647000D03*
X2204000Y-9393000D03*
Y-9139000D03*
Y-8885000D03*
Y-8631000D03*
X1950000Y-9393000D03*
Y-9139000D03*
Y-8885000D03*
Y-8631000D03*
X1696000Y-9393000D03*
Y-9139000D03*
Y-8885000D03*
Y-8631000D03*
X2204000Y-8377000D03*
Y-8123000D03*
Y-7869000D03*
Y-7615000D03*
X1950000Y-8377000D03*
Y-8123000D03*
Y-7869000D03*
Y-7615000D03*
X1696000Y-8377000D03*
Y-8123000D03*
Y-7869000D03*
Y-7615000D03*
X2204000Y-7361000D03*
Y-7107000D03*
Y-6853000D03*
Y-6599000D03*
X1950000Y-7361000D03*
Y-7107000D03*
Y-6853000D03*
Y-6599000D03*
X1696000Y-7361000D03*
Y-7107000D03*
Y-6853000D03*
Y-6599000D03*
X2204000Y-6345000D03*
Y-6091000D03*
Y-5837000D03*
Y-5583000D03*
X1950000Y-6345000D03*
Y-6091000D03*
Y-5837000D03*
Y-5583000D03*
X1696000Y-6345000D03*
Y-6091000D03*
Y-5837000D03*
Y-5583000D03*
X2204000Y-5329000D03*
Y-5075000D03*
Y-4821000D03*
Y-4567000D03*
X1950000Y-5329000D03*
Y-5075000D03*
Y-4821000D03*
Y-4567000D03*
X1696000Y-5329000D03*
Y-5075000D03*
Y-4821000D03*
Y-4567000D03*
X2204000Y-4313000D03*
X1950000D03*
X1696000D03*
X2204000Y4313000D03*
X1950000D03*
X1696000D03*
X2204000Y4567000D03*
Y4821000D03*
Y5075000D03*
Y5329000D03*
X1950000Y4567000D03*
Y4821000D03*
Y5075000D03*
Y5329000D03*
X1696000Y4567000D03*
Y4821000D03*
Y5075000D03*
Y5329000D03*
X2204000Y5583000D03*
Y5837000D03*
Y6091000D03*
Y6345000D03*
X1950000Y5583000D03*
Y5837000D03*
Y6091000D03*
Y6345000D03*
X1696000Y5583000D03*
Y5837000D03*
Y6091000D03*
Y6345000D03*
X2204000Y6599000D03*
Y6853000D03*
Y7107000D03*
Y7361000D03*
X1950000Y6599000D03*
Y6853000D03*
Y7107000D03*
Y7361000D03*
X1696000Y6599000D03*
Y6853000D03*
Y7107000D03*
Y7361000D03*
X2204000Y7615000D03*
Y7869000D03*
Y8123000D03*
Y8377000D03*
X1950000Y7615000D03*
Y7869000D03*
Y8123000D03*
Y8377000D03*
X1696000Y7615000D03*
Y7869000D03*
Y8123000D03*
Y8377000D03*
X2204000Y8631000D03*
Y8885000D03*
Y9139000D03*
Y9393000D03*
X1950000Y8631000D03*
Y8885000D03*
Y9139000D03*
Y9393000D03*
X1696000Y8631000D03*
Y8885000D03*
Y9139000D03*
Y9393000D03*
X2204000Y9647000D03*
Y9901000D03*
Y10155000D03*
Y10409000D03*
X1950000Y9647000D03*
Y9901000D03*
Y10155000D03*
Y10409000D03*
X1696000Y9647000D03*
Y9901000D03*
Y10155000D03*
Y10409000D03*
X2204000Y10663000D03*
Y10917000D03*
Y11171000D03*
Y11425000D03*
X1950000Y10663000D03*
Y10917000D03*
Y11171000D03*
Y11425000D03*
X1696000Y10663000D03*
Y10917000D03*
Y11171000D03*
Y11425000D03*
X2204000Y11679000D03*
Y11933000D03*
Y12187000D03*
X1950000Y11679000D03*
Y11933000D03*
Y12187000D03*
X1696000Y11679000D03*
Y11933000D03*
Y12187000D03*
G54D12*
X0Y-16000000D03*
Y0D03*
Y16000000D03*
G54D13*
X508000Y13523000D03*
Y14523000D03*
G54D14*
X1920000Y-12750000D03*
Y-3750000D03*
Y3750000D03*
Y12750000D03*
G54D15*
G01X-2500000Y-16500000D02*
Y16500000D01*
X2500000D01*
Y-16500000D01*
X-2500000D01*
M02*
