G04 ================== begin FILE IDENTIFICATION RECORD ==================*
G04 Layout Name:  F:/MOTHER/PCB/MOTHER_BOARD-ROA.brd*
G04 Film Name:    SilkTOP*
G04 File Format:  Gerber RS274X*
G04 File Origin:  Cadence Allegro 16.3-p003*
G04 Origin Date:  Mon Dec 16 19:00:39 2013*
G04 *
G04 Layer:  BOARD GEOMETRY/OUTLINE*
G04 Layer:  BOARD GEOMETRY/SILKSCREEN_TOP*
G04 Layer:  PACKAGE GEOMETRY/SILKSCREEN_TOP*
G04 Layer:  REF DES/SILKSCREEN_TOP*
G04 *
G04 Offset:    (0.0000 0.0000)*
G04 Mirror:    No*
G04 Mode:      Positive*
G04 Rotation:  0*
G04 FullContactRelief:  No*
G04 UndefLineWidth:     0.1270*
G04 ================== end FILE IDENTIFICATION RECORD ====================*
%FSLAX55Y55*MOMM*%
%IR0*IPPOS*OFA0.00000B0.00000*MIA0B0*SFA1.00000B1.00000*%
%ADD10C,.127*%
%ADD11C,.254*%
%ADD12C,.1524*%
%ADD13C,.1778*%
G75*
%LPD*%
G75*
G54D10*
G01X-2500000Y-16500000D02*
Y16500000D01*
X2500000D01*
Y-16500000D01*
X-2500000D01*
G01X-574790Y-1000000D02*
G03I-425210J0D01*
G01Y1000000D02*
G03I-425210J0D01*
G01X-427890Y12925000D02*
G03I-72110J0D01*
G01X390510Y-16000000D02*
G03I-390510J0D01*
G01Y0D02*
G03I-390510J0D01*
G01X-177890Y12925000D02*
G03I-72110J0D01*
G01X72110D02*
G03I-72110J0D01*
G01X390510Y16000000D02*
G03I-390510J0D01*
G01X2505000Y-13000000D02*
Y-3500000D01*
X1395000D01*
Y-13000000D01*
X2505000D01*
G01Y3500000D02*
Y13000000D01*
X1395000D01*
Y3500000D01*
X2505000D01*
G01X1690000Y-4190000D02*
X1750000Y-4130000D01*
X1630000D01*
X1690000Y-4190000D01*
G01Y12310000D02*
X1750000Y12370000D01*
X1630000D01*
X1690000Y12310000D01*
G54D11*
G01X-1622060Y7027000D02*
X-1606820Y7042240D01*
X-1589040Y7049860D01*
X-1568720Y7052400D01*
X-1543320Y7047320D01*
X-1525540Y7034620D01*
X-1520460Y7019380D01*
X-1523000Y7004140D01*
X-1533160Y6991440D01*
X-1583960Y6966040D01*
X-1606820Y6948260D01*
X-1622060Y6922860D01*
X-1627140Y6900000D01*
X-1520460D01*
G01X-1421400Y7052400D02*
X-1441720Y7047320D01*
X-1456960Y7034620D01*
X-1467120Y7019380D01*
X-1474740Y6999060D01*
X-1477280Y6976200D01*
X-1474740Y6953340D01*
X-1467120Y6933020D01*
X-1456960Y6917780D01*
X-1441720Y6905080D01*
X-1421400Y6900000D01*
X-1401080Y6905080D01*
X-1385840Y6917780D01*
X-1375680Y6933020D01*
X-1368060Y6953340D01*
X-1365520Y6976200D01*
X-1368060Y6999060D01*
X-1375680Y7019380D01*
X-1385840Y7034620D01*
X-1401080Y7047320D01*
X-1421400Y7052400D01*
G01X-1269000Y6900000D02*
Y7052400D01*
X-1299480Y7021920D01*
G01Y6900000D02*
X-1238520D01*
G01X-1172480Y6930480D02*
X-1157240Y6912700D01*
X-1136920Y6902540D01*
X-1114060Y6900000D01*
X-1093740Y6902540D01*
X-1073420Y6915240D01*
X-1060720Y6930480D01*
X-1058180Y6945720D01*
X-1063260Y6963500D01*
X-1081040Y6976200D01*
X-1098820Y6981280D01*
X-1121680D01*
G01X-1098820D02*
X-1083580Y6988900D01*
X-1070880Y7001600D01*
X-1065800Y7016840D01*
X-1070880Y7032080D01*
X-1083580Y7044780D01*
X-1106440Y7052400D01*
X-1129300Y7049860D01*
X-1152160Y7039700D01*
G01X-997220Y6950800D02*
X-931180D01*
G01X-811800Y6900000D02*
Y7052400D01*
X-842280Y7021920D01*
G01Y6900000D02*
X-781320D01*
G01X-707660Y7027000D02*
X-692420Y7042240D01*
X-674640Y7049860D01*
X-654320Y7052400D01*
X-628920Y7047320D01*
X-611140Y7034620D01*
X-606060Y7019380D01*
X-608600Y7004140D01*
X-618760Y6991440D01*
X-669560Y6966040D01*
X-692420Y6948260D01*
X-707660Y6922860D01*
X-712740Y6900000D01*
X-606060D01*
G01X-540020Y6950800D02*
X-473980D01*
G01X-354600Y6900000D02*
Y7052400D01*
X-385080Y7021920D01*
G01Y6900000D02*
X-324120D01*
G01X-250460Y6963500D02*
X-232680Y6981280D01*
X-217440Y6991440D01*
X-197120Y6996520D01*
X-179340Y6991440D01*
X-166640Y6981280D01*
X-156480Y6966040D01*
X-153940Y6948260D01*
X-156480Y6933020D01*
X-166640Y6917780D01*
X-181880Y6905080D01*
X-199660Y6900000D01*
X-219980Y6905080D01*
X-237760Y6920320D01*
X-247920Y6943180D01*
X-250460Y6968580D01*
X-245380Y7001600D01*
X-237760Y7019380D01*
X-225060Y7037160D01*
X-207280Y7049860D01*
X-189500Y7052400D01*
X-171720Y7047320D01*
X-159020Y7034620D01*
G01X-1639840Y7250000D02*
Y7402400D01*
X-1573800Y7275400D01*
X-1507760Y7402400D01*
Y7250000D01*
G01X-1421400D02*
X-1441720Y7252540D01*
X-1459500Y7262700D01*
X-1474740Y7277940D01*
X-1484900Y7295720D01*
X-1489980Y7316040D01*
Y7336360D01*
X-1484900Y7356680D01*
X-1474740Y7374460D01*
X-1459500Y7389700D01*
X-1441720Y7399860D01*
X-1421400Y7402400D01*
X-1401080Y7399860D01*
X-1383300Y7389700D01*
X-1368060Y7374460D01*
X-1357900Y7356680D01*
X-1352820Y7336360D01*
Y7316040D01*
X-1357900Y7295720D01*
X-1368060Y7277940D01*
X-1383300Y7262700D01*
X-1401080Y7252540D01*
X-1421400Y7250000D01*
G01X-1269000Y7402400D02*
Y7250000D01*
G01X-1327420Y7402400D02*
X-1210580D01*
G01X-1169940Y7250000D02*
Y7402400D01*
G01X-1063260D02*
Y7250000D01*
G01Y7326200D02*
X-1169940D01*
G01X-913400Y7250000D02*
X-1015000D01*
Y7402400D01*
X-913400D01*
G01X-954040Y7328740D02*
X-1015000D01*
G01X-862600Y7250000D02*
Y7402400D01*
X-799100D01*
X-778780Y7394780D01*
X-766080Y7384620D01*
X-761000Y7364300D01*
X-766080Y7343980D01*
X-781320Y7331280D01*
X-799100Y7323660D01*
X-862600D01*
G01X-799100D02*
X-761000Y7250000D01*
G01X-486680Y7331280D02*
X-476520Y7338900D01*
X-468900Y7351600D01*
X-463820Y7369380D01*
X-468900Y7384620D01*
X-479060Y7394780D01*
X-496840Y7402400D01*
X-565420D01*
Y7250000D01*
X-481600D01*
X-463820Y7260160D01*
X-453660Y7275400D01*
X-448580Y7293180D01*
X-453660Y7310960D01*
X-468900Y7326200D01*
X-486680Y7331280D01*
X-565420D01*
G01X-354600Y7250000D02*
X-374920Y7252540D01*
X-392700Y7262700D01*
X-407940Y7277940D01*
X-418100Y7295720D01*
X-423180Y7316040D01*
Y7336360D01*
X-418100Y7356680D01*
X-407940Y7374460D01*
X-392700Y7389700D01*
X-374920Y7399860D01*
X-354600Y7402400D01*
X-334280Y7399860D01*
X-316500Y7389700D01*
X-301260Y7374460D01*
X-291100Y7356680D01*
X-286020Y7336360D01*
Y7316040D01*
X-291100Y7295720D01*
X-301260Y7277940D01*
X-316500Y7262700D01*
X-334280Y7252540D01*
X-354600Y7250000D01*
G01X-265700D02*
X-202200Y7402400D01*
X-138700Y7250000D01*
G01X-161560Y7303340D02*
X-242840D01*
G01X-100600Y7250000D02*
Y7402400D01*
X-37100D01*
X-16780Y7394780D01*
X-4080Y7384620D01*
X1000Y7364300D01*
X-4080Y7343980D01*
X-19320Y7331280D01*
X-37100Y7323660D01*
X-100600D01*
G01X-37100D02*
X1000Y7250000D01*
G01X46720D02*
Y7402400D01*
X97520D01*
X117840Y7394780D01*
X133080Y7384620D01*
X145780Y7369380D01*
X155940Y7351600D01*
X158480Y7326200D01*
X155940Y7300800D01*
X145780Y7283020D01*
X133080Y7267780D01*
X117840Y7257620D01*
X97520Y7250000D01*
X46720D01*
G01X356600D02*
Y7402400D01*
X420100D01*
X440420Y7394780D01*
X453120Y7384620D01*
X458200Y7364300D01*
X453120Y7343980D01*
X437880Y7331280D01*
X420100Y7323660D01*
X356600D01*
G01X420100D02*
X458200Y7250000D01*
G01X559800D02*
X539480Y7252540D01*
X521700Y7262700D01*
X506460Y7277940D01*
X496300Y7295720D01*
X491220Y7316040D01*
Y7336360D01*
X496300Y7356680D01*
X506460Y7374460D01*
X521700Y7389700D01*
X539480Y7399860D01*
X559800Y7402400D01*
X580120Y7399860D01*
X597900Y7389700D01*
X613140Y7374460D01*
X623300Y7356680D01*
X628380Y7336360D01*
Y7316040D01*
X623300Y7295720D01*
X613140Y7277940D01*
X597900Y7262700D01*
X580120Y7252540D01*
X559800Y7250000D01*
G01X648700D02*
X712200Y7402400D01*
X775700Y7250000D01*
G01X752840Y7303340D02*
X671560D01*
G54D12*
G01X-619810Y8855590D02*
X-611760Y8866180D01*
X-603730Y8872530D01*
X-590850Y8874640D01*
X-579600Y8872530D01*
X-568320Y8861940D01*
X-563500Y8847130D01*
X-561900Y8832320D01*
X-563500Y8817490D01*
X-568320Y8802680D01*
X-577980Y8794220D01*
X-590850Y8789980D01*
X-602100Y8792090D01*
X-613380Y8798440D01*
X-619810Y8806920D01*
G01Y8747640D02*
Y8874640D01*
G01X-738100D02*
X-707520Y8804790D01*
G01X-754170Y8751880D02*
X-744520Y8747640D01*
X-731640Y8751880D01*
X-723620Y8760340D01*
X-717170Y8770930D01*
X-707520Y8804790D01*
X-686610Y8874640D01*
G01X-814550Y8906390D02*
X-824200Y8912740D01*
X-835450Y8916980D01*
X-848330D01*
X-862810Y8910630D01*
X-874060Y8900040D01*
X-882110Y8887340D01*
X-888540Y8866180D01*
X-890140Y8847130D01*
X-886940Y8828080D01*
X-882110Y8815380D01*
X-872460Y8802680D01*
X-861180Y8794220D01*
X-849930Y8789980D01*
X-838680D01*
X-827400Y8794220D01*
X-817750Y8800570D01*
X-809720Y8809030D01*
G01X-576200Y12613100D02*
X-500000D01*
G01X-576200Y12583890D02*
Y12642310D01*
G01X-500000Y12663900D02*
X-576200D01*
Y12694380D01*
X-572390Y12704540D01*
X-563500Y12712160D01*
X-553340Y12714700D01*
X-543180Y12712160D01*
X-535560Y12705810D01*
X-531750Y12694380D01*
Y12663900D01*
G01X-508890Y12743910D02*
X-502540Y12752800D01*
X-500000Y12762960D01*
X-502540Y12773120D01*
X-510160Y12782010D01*
X-521590Y12788360D01*
X-533020Y12790900D01*
X-546990D01*
X-558420Y12788360D01*
X-568580Y12782010D01*
X-573660Y12774390D01*
X-576200Y12765500D01*
X-573660Y12755340D01*
X-568580Y12747720D01*
X-560960Y12742640D01*
X-550800Y12740100D01*
X-541910Y12742640D01*
X-533020Y12748990D01*
X-527940Y12756610D01*
X-526670Y12765500D01*
X-529210Y12775660D01*
X-535560Y12783280D01*
X-546990Y12790900D01*
G01X-96820Y8804790D02*
X-88770Y8796330D01*
X-77520Y8789980D01*
X-67870D01*
X-58210Y8794220D01*
X-51790Y8800570D01*
X-48560Y8809030D01*
X-50160Y8821730D01*
X-56610Y8828080D01*
X-85570Y8840780D01*
X-92000Y8855590D01*
X-88770Y8866180D01*
X-82340Y8872530D01*
X-72690Y8874640D01*
X-63040Y8872530D01*
X-53390Y8866180D01*
G01X-226360Y8804790D02*
X-218310Y8796330D01*
X-207060Y8789980D01*
X-197410D01*
X-187750Y8794220D01*
X-181330Y8800570D01*
X-178100Y8809030D01*
X-179700Y8821730D01*
X-186150Y8828080D01*
X-215110Y8840780D01*
X-221540Y8855590D01*
X-218310Y8866180D01*
X-211880Y8872530D01*
X-202230Y8874640D01*
X-192580Y8872530D01*
X-182930Y8866180D01*
G01X-355900Y8847130D02*
X-304420D01*
X-309240Y8861940D01*
X-317290Y8870420D01*
X-328550Y8874640D01*
X-339820Y8872530D01*
X-349480Y8866180D01*
X-355900Y8851370D01*
X-359130Y8838670D01*
Y8825970D01*
X-355900Y8813270D01*
X-347850Y8800570D01*
X-338200Y8792090D01*
X-326950Y8789980D01*
X-315690Y8794220D01*
X-304420Y8806920D01*
G01X-483840Y8857720D02*
X-475790Y8866180D01*
X-467740Y8872530D01*
X-456490Y8874640D01*
X-448440Y8872530D01*
X-438780Y8866180D01*
G01X-483840Y8789980D02*
Y8874640D01*
G01X-326200Y12613100D02*
X-250000D01*
G01X-326200Y12583890D02*
Y12642310D01*
G01X-250000Y12663900D02*
X-326200D01*
Y12694380D01*
X-322390Y12704540D01*
X-313500Y12712160D01*
X-303340Y12714700D01*
X-293180Y12712160D01*
X-285560Y12705810D01*
X-281750Y12694380D01*
Y12663900D01*
G01X-250000Y12765500D02*
X-251270Y12774390D01*
X-255080Y12784550D01*
X-261430Y12790900D01*
X-270320Y12793440D01*
X-279210Y12790900D01*
X-286830Y12783280D01*
X-290640Y12771850D01*
Y12759150D01*
X-293180Y12751530D01*
X-299530Y12745180D01*
X-308420Y12742640D01*
X-317310Y12746450D01*
X-323660Y12755340D01*
X-326200Y12765500D01*
X-323660Y12775660D01*
X-317310Y12784550D01*
X-308420Y12788360D01*
X-299530Y12785820D01*
X-293180Y12779470D01*
X-290640Y12771850D01*
Y12759150D01*
X-286830Y12747720D01*
X-279210Y12740100D01*
X-270320Y12737560D01*
X-261430Y12740100D01*
X-255080Y12746450D01*
X-251270Y12756610D01*
X-250000Y12765500D01*
G01X-76200Y12613100D02*
X0D01*
G01X-76200Y12583890D02*
Y12642310D01*
G01X0Y12663900D02*
X-76200D01*
Y12694380D01*
X-72390Y12704540D01*
X-63500Y12712160D01*
X-53340Y12714700D01*
X-43180Y12712160D01*
X-35560Y12705810D01*
X-31750Y12694380D01*
Y12663900D01*
G01X0Y12762960D02*
X-16510Y12765500D01*
X-30480Y12769310D01*
X-43180Y12774390D01*
X-57150Y12780740D01*
X-76200Y12790900D01*
Y12740100D01*
G01X1787700Y-3434760D02*
X1794050Y-3442380D01*
X1801670Y-3447460D01*
X1810560Y-3450000D01*
X1820720Y-3447460D01*
X1828340Y-3442380D01*
X1835960Y-3434760D01*
X1838500Y-3424600D01*
Y-3373800D01*
G01X1861360Y-3438570D02*
X1868980Y-3444920D01*
X1877870Y-3448730D01*
X1889300Y-3450000D01*
X1900730Y-3447460D01*
X1909620Y-3442380D01*
X1915970Y-3433490D01*
X1917240Y-3423330D01*
X1914700Y-3413170D01*
X1908350Y-3406820D01*
X1899460Y-3401740D01*
X1890570Y-3400470D01*
X1881680Y-3401740D01*
X1870250Y-3406820D01*
X1874060Y-3373800D01*
X1908350D01*
G01X1965500Y-3450000D02*
X1974390Y-3448730D01*
X1984550Y-3444920D01*
X1990900Y-3438570D01*
X1993440Y-3429680D01*
X1990900Y-3420790D01*
X1983280Y-3413170D01*
X1971850Y-3409360D01*
X1959150D01*
X1951530Y-3406820D01*
X1945180Y-3400470D01*
X1942640Y-3391580D01*
X1946450Y-3382690D01*
X1955340Y-3376340D01*
X1965500Y-3373800D01*
X1975660Y-3376340D01*
X1984550Y-3382690D01*
X1988360Y-3391580D01*
X1985820Y-3400470D01*
X1979470Y-3406820D01*
X1971850Y-3409360D01*
X1959150D01*
X1947720Y-3413170D01*
X1940100Y-3420790D01*
X1937560Y-3429680D01*
X1940100Y-3438570D01*
X1946450Y-3444920D01*
X1956610Y-3448730D01*
X1965500Y-3450000D01*
G01X1762700Y3365240D02*
X1769050Y3357620D01*
X1776670Y3352540D01*
X1785560Y3350000D01*
X1795720Y3352540D01*
X1803340Y3357620D01*
X1810960Y3365240D01*
X1813500Y3375400D01*
Y3426200D01*
G01X1836360Y3361430D02*
X1843980Y3355080D01*
X1852870Y3351270D01*
X1864300Y3350000D01*
X1875730Y3352540D01*
X1884620Y3357620D01*
X1890970Y3366510D01*
X1892240Y3376670D01*
X1889700Y3386830D01*
X1883350Y3393180D01*
X1874460Y3398260D01*
X1865570Y3399530D01*
X1856680Y3398260D01*
X1845250Y3393180D01*
X1849060Y3426200D01*
X1883350D01*
G01X1918910Y3358890D02*
X1927800Y3352540D01*
X1937960Y3350000D01*
X1948120Y3352540D01*
X1957010Y3360160D01*
X1963360Y3371590D01*
X1965900Y3383020D01*
Y3396990D01*
X1963360Y3408420D01*
X1957010Y3418580D01*
X1949390Y3423660D01*
X1940500Y3426200D01*
X1930340Y3423660D01*
X1922720Y3418580D01*
X1917640Y3410960D01*
X1915100Y3400800D01*
X1917640Y3391910D01*
X1923990Y3383020D01*
X1931610Y3377940D01*
X1940500Y3376670D01*
X1950660Y3379210D01*
X1958280Y3385560D01*
X1965900Y3396990D01*
G54D13*
G01X-1020110Y9455460D02*
X-1016300Y9435140D01*
G01D02*
X-785160D01*
G01D02*
X-781350Y9419900D01*
G01D02*
X-212390D01*
G01X-1002330Y9379260D02*
X-769920Y9377990D01*
G01D02*
X-764840Y9362750D01*
G01D02*
X-214930Y9364020D01*
G01X-211120Y9408470D02*
X-1011220D01*
G01D02*
X-1002330Y9379260D01*
G01X-978200Y9322110D02*
X-745790Y9320840D01*
G01D02*
X-739440Y9306870D01*
G01D02*
X-265730D01*
G01X-225090Y9352590D02*
X-992170D01*
G01D02*
X-985820Y9334810D01*
G01D02*
X-978200Y9322110D01*
G01X-945180Y9266230D02*
X-711500Y9264960D01*
G01D02*
X-701340Y9250990D01*
G01D02*
X-312720Y9249720D01*
G01X-275890Y9295440D02*
X-964230Y9294170D01*
G01D02*
X-954070Y9278930D01*
G01D02*
X-945180Y9266230D01*
G01X-922320Y9239560D02*
X-919780Y9233210D01*
G01D02*
X-910890Y9223050D01*
G01D02*
X-896920Y9209080D01*
G01D02*
X-664510D01*
G01D02*
X-648000Y9193840D01*
G01D02*
X-330500D01*
G01X-320340Y9238290D02*
X-922320Y9239560D01*
G01X-335580Y9182410D02*
X-863900D01*
G01D02*
X-852470Y9172250D01*
G01X-823260Y9151930D02*
X-588310D01*
G01D02*
X-560370Y9136690D01*
G01D02*
X-359710Y9137960D01*
G01X-852470Y9172250D02*
X-823260Y9151930D01*
G01X-766870Y9124500D02*
X-363010D01*
G01X-376980Y9093510D02*
X-636060D01*
G01D02*
X-689910Y9101380D01*
G01D02*
X-722930Y9109510D01*
G01D02*
X-766870Y9124500D01*
G01X-599740Y9590080D02*
X-574340Y9591350D01*
G01D02*
X-573070Y9602780D01*
G01D02*
X-578150Y9606590D01*
G01D02*
X-579420D01*
G01D02*
X-588310Y9601510D01*
G01D02*
X-597200Y9598970D01*
G01D02*
X-599740Y9593890D01*
G01D02*
Y9590080D01*
G01X-992170Y9662470D02*
X-761030Y9661200D01*
G01D02*
X-764840Y9648500D01*
G01D02*
X-761030D01*
G01D02*
X-750870Y9656120D01*
G01D02*
X-735630Y9657390D01*
G01D02*
X-719120Y9652310D01*
G01D02*
X-705150D01*
G01D02*
X-693720Y9658660D01*
G01D02*
Y9662470D01*
G01D02*
X-710230D01*
G01D02*
X-722930Y9663740D01*
G01D02*
X-731820Y9670090D01*
G01D02*
X-691180Y9675170D01*
G01D02*
X-673400Y9670090D01*
G01D02*
X-642920Y9675170D01*
G01D02*
X-644190Y9677710D01*
G01D02*
X-656890Y9678980D01*
G01D02*
X-664510Y9681520D01*
G01D02*
X-649270Y9691680D01*
G01D02*
X-978200Y9692950D01*
G01D02*
X-987090Y9677710D01*
G01D02*
X-992170Y9662470D01*
G01X-1002330Y9635800D02*
X-1009950Y9606590D01*
G01D02*
X-780080Y9605320D01*
G01D02*
X-781350Y9590080D01*
G01D02*
X-622600D01*
G01D02*
X-620060Y9596430D01*
G01D02*
X-598470Y9607860D01*
G01D02*
X-597200Y9612940D01*
G01D02*
X-608630Y9609130D01*
G01D02*
X-616250D01*
G01D02*
X-631490Y9614210D01*
G01D02*
X-637840Y9616750D01*
G01D02*
X-641650D01*
G01D02*
X-651810Y9611670D01*
G01D02*
X-675940D01*
G01D02*
X-693720Y9606590D01*
G01D02*
X-700070Y9607860D01*
G01D02*
X-702610Y9610400D01*
G01D02*
X-715310Y9612940D01*
G01D02*
X-721660Y9619290D01*
G01D02*
X-722930Y9623100D01*
G01D02*
X-717850Y9625640D01*
G01D02*
X-712770Y9626910D01*
G01D02*
X-714040Y9629450D01*
G01D02*
X-717850Y9630720D01*
G01D02*
X-731820Y9631990D01*
G01D02*
X-738170Y9633260D01*
G01D02*
X-740710Y9635800D01*
G01D02*
X-1002330D01*
G01X-1016300Y9579920D02*
X-1021380Y9549440D01*
G01D02*
X-788970D01*
G01D02*
Y9534200D01*
G01D02*
X-297480D01*
G01X-501950Y9551980D02*
X-514650Y9550710D01*
G01D02*
X-513380Y9555790D01*
G01D02*
X-508300Y9559600D01*
G01D02*
X-509570Y9564680D01*
G01D02*
X-515920Y9565950D01*
G01D02*
X-527350Y9560870D01*
G01D02*
X-532430D01*
G01D02*
X-543860Y9562140D01*
G01D02*
X-557830Y9568490D01*
G01D02*
X-562910Y9571030D01*
G01D02*
X-567990Y9569760D01*
G01D02*
X-576880Y9554520D01*
G01D02*
X-580690Y9557060D01*
G01D02*
X-585770Y9563410D01*
G01D02*
Y9568490D01*
G01D02*
X-584500Y9572300D01*
G01D02*
X-587040Y9577380D01*
G01D02*
X-590850Y9579920D01*
G01D02*
X-1016300D01*
G01X-1021380Y9522770D02*
Y9492290D01*
G01D02*
X-790240Y9491020D01*
G01D02*
X-788970Y9477050D01*
G01D02*
X-244140D01*
G01X-264460Y9522770D02*
X-1021380D01*
G01X-1020110Y9465620D02*
Y9455460D01*
G01X-233980Y9465620D02*
X-1020110D01*
G01X-764840Y9888530D02*
X-537510D01*
G01D02*
X-564180Y9874560D01*
G01D02*
X-189530Y9875830D01*
G01X-357170Y9919010D02*
X-632760D01*
G01D02*
X-659430Y9916470D01*
G01D02*
X-697530Y9910120D01*
G01D02*
X-747060Y9896150D01*
G01D02*
X-764840Y9889800D01*
G01D02*
Y9888530D01*
G01X-819450Y9861860D02*
X-848660Y9845350D01*
G01D02*
X-861360Y9832650D01*
G01D02*
X-632760D01*
G01D02*
X-648000Y9817410D01*
G01D02*
X-106980Y9818680D01*
G01X-166670Y9863130D02*
X-818180D01*
G01D02*
X-819450Y9861860D01*
G01X-921050Y9776770D02*
X-691180D01*
G01D02*
X-701340Y9761530D01*
G01D02*
X-407970D01*
G01X-93010Y9805980D02*
X-894380D01*
G01D02*
X-914700Y9786930D01*
G01D02*
X-921050Y9776770D01*
G01X-943910Y9748830D02*
X-964230Y9719620D01*
G01D02*
X-731820Y9718350D01*
G01D02*
X-739440Y9703110D01*
G01D02*
X-585770D01*
G01D02*
X-579420Y9705650D01*
G01D02*
X-581960Y9713270D01*
G01D02*
X-578150Y9714540D01*
G01D02*
X-562910D01*
G01D02*
X-564180Y9720890D01*
G01D02*
X-551480Y9728510D01*
G01D02*
X-543860Y9733590D01*
G01D02*
X-534970Y9736130D01*
G01D02*
X-526080Y9729780D01*
G01D02*
X-510840Y9734860D01*
G01D02*
X-505760D01*
G01D02*
X-498140Y9732320D01*
G01X-439720Y9748830D02*
X-943910D01*
G01X-93010Y9422440D02*
X-87930D01*
G01X-76500Y9424980D02*
X-66340Y9428790D01*
G01D02*
X-65070Y9437680D01*
G01D02*
X-68880Y9442760D01*
G01D02*
X-75230Y9444030D01*
G01D02*
X-87930Y9431330D01*
G01X-103170Y9428790D02*
X-96820Y9435140D01*
G01D02*
X-86660Y9447840D01*
G01D02*
X-87930Y9451650D01*
G01X-101900D02*
X-105710Y9445300D01*
G01D02*
X-106980Y9440220D01*
G01D02*
X-105710Y9433870D01*
G01D02*
X-103170Y9428790D01*
G01X-216200Y9449110D02*
X-206040Y9433870D01*
G01D02*
X-202230Y9435140D01*
G01D02*
X-200960Y9449110D01*
G01D02*
X-197150Y9458000D01*
G01X-220010Y9428790D02*
X-235250Y9432600D01*
G01D02*
X-253030D01*
G01D02*
X-254300Y9442760D01*
G01D02*
X-245410Y9441490D01*
G01D02*
X-241600Y9440220D01*
G01D02*
X-230170Y9445300D01*
G01D02*
X-227630Y9450380D01*
G01X31450Y9437680D02*
X32720Y9465620D01*
G01X13670Y9454190D02*
X-1570Y9442760D01*
G01D02*
X-23160Y9432600D01*
G01D02*
X-35860Y9427520D01*
G01D02*
X-53640Y9424980D01*
G01X-30780Y9451650D02*
X-21890Y9444030D01*
G01D02*
X-37130Y9437680D01*
G01D02*
X-51100D01*
G01D02*
X-61260Y9452920D01*
G01X-87930Y9422440D02*
X-76500Y9424980D01*
G01X-87930Y9431330D02*
X-93010Y9422440D01*
G01X-212390Y9419900D02*
X-220010Y9428790D01*
G01X-214930Y9364020D02*
X-212390Y9377990D01*
G01D02*
X-211120Y9408470D01*
G01X-265730Y9306870D02*
X-260650Y9310680D01*
G01D02*
X-246680Y9317030D01*
G01D02*
X-231440Y9329730D01*
G01D02*
X-226360Y9343700D01*
G01D02*
X-223820Y9351320D01*
G01D02*
X-225090Y9352590D01*
G01X-279700Y9286550D02*
X-275890Y9295440D01*
G01X-241600Y9182410D02*
Y9177330D01*
G01X-126030Y9178600D02*
X-123490Y9182410D01*
G01D02*
X-241600D01*
G01X-230170Y9238290D02*
X-233980Y9230670D01*
G01D02*
X-236520Y9219240D01*
G01D02*
Y9204000D01*
G01D02*
X-237790Y9193840D01*
G01D02*
X-108250D01*
G01D02*
X-82850Y9216700D01*
G01D02*
X-62530Y9238290D01*
G01D02*
X-230170D01*
G01X-192070Y9295440D02*
X-197150Y9287820D01*
G01D02*
X-209850Y9278930D01*
G01D02*
X-213660Y9267500D01*
G01D02*
X-222550Y9261150D01*
G01D02*
X-226360Y9249720D01*
G01D02*
X-52370Y9250990D01*
G01D02*
X-21890Y9295440D01*
G01D02*
X-192070D01*
G01X-145080Y9351320D02*
X-147620Y9337350D01*
G01D02*
X-156510Y9324650D01*
G01D02*
X-171750Y9315760D01*
G01D02*
X-176830Y9310680D01*
G01D02*
Y9306870D01*
G01D02*
X-15540D01*
G01D02*
X-2840Y9327190D01*
G01D02*
X4780Y9351320D01*
G01D02*
X-145080D01*
G01X-115870Y9408470D02*
X-117140Y9402120D01*
G01D02*
X-123490Y9391960D01*
G01D02*
X-136190Y9380530D01*
G01D02*
X-142540Y9371640D01*
G01D02*
X-143810Y9364020D01*
G01D02*
X11130D01*
G01D02*
X18750Y9386880D01*
G01D02*
X23830Y9408470D01*
G01D02*
X-115870D01*
G01X-53640Y9424980D02*
X-54910Y9419900D01*
G01D02*
X26370D01*
G01D02*
X31450Y9437680D01*
G01X-259380Y9111290D02*
X-218740Y9125260D01*
G01D02*
X-278430D01*
G01X-241600Y9177330D02*
X-259380Y9163360D01*
G01D02*
X-265730Y9148120D01*
G01D02*
Y9137960D01*
G01D02*
X-189530D01*
G01D02*
X-126030Y9178600D01*
G01X-312720Y9249720D02*
X-303830Y9253530D01*
G01D02*
X-300020Y9263690D01*
G01D02*
X-286050Y9280200D01*
G01D02*
X-279700Y9286550D01*
G01X-330500Y9193840D02*
X-325420Y9207810D01*
G01D02*
X-324150Y9228130D01*
G01D02*
X-320340Y9238290D01*
G01X-340660Y9167170D02*
X-335580Y9182410D01*
G01X-359710Y9137960D02*
X-347010Y9154470D01*
G01D02*
X-340660Y9167170D01*
G01X-363010Y9124500D02*
X-366060Y9115350D01*
G01D02*
X-372920Y9103410D01*
G01D02*
X-375970Y9101380D01*
G01D02*
X-376980Y9093510D01*
G01X-278430Y9125260D02*
X-292400Y9113830D01*
G01D02*
X-296210Y9106210D01*
G01D02*
Y9101130D01*
G01D02*
X-259380Y9111290D01*
G01X-87930Y9451650D02*
X-94280Y9452920D01*
G01D02*
X-101900Y9451650D01*
G01X-85390Y9492290D02*
X-77770Y9483400D01*
G01D02*
X-70150Y9488480D01*
G01D02*
X-68880Y9497370D01*
G01D02*
X-73960Y9498640D01*
G01D02*
X-81580D01*
G01D02*
X-85390Y9494830D01*
G01D02*
Y9492290D01*
G01X-108250Y9477050D02*
X-94280D01*
G01D02*
X-89200Y9479590D01*
G01D02*
Y9482130D01*
G01D02*
X-94280Y9483400D01*
G01D02*
X-99360Y9489750D01*
G01D02*
X-103170Y9496100D01*
G01D02*
X-108250Y9497370D01*
G01D02*
X-112060Y9493560D01*
G01D02*
Y9484670D01*
G01D02*
X-108250Y9477050D01*
G01X-268270Y9545630D02*
X-247950D01*
G01D02*
X-240330Y9551980D01*
G01D02*
X-241600Y9558330D01*
G01D02*
X-246680Y9560870D01*
G01D02*
X-253030D01*
G01D02*
X-268270Y9554520D01*
G01D02*
X-270810Y9555790D01*
G01D02*
X-274620Y9564680D01*
G01X-245410Y9522770D02*
X-218740D01*
G01D02*
X-226360Y9502450D01*
G01D02*
X-228900Y9498640D01*
G01D02*
X-235250Y9493560D01*
G01D02*
X-242870Y9506260D01*
G01D02*
X-245410Y9522770D01*
G01X-193340Y9504990D02*
X-186990Y9507530D01*
G01D02*
X-180640Y9515150D01*
G01D02*
Y9522770D01*
G01D02*
X-204770D01*
G01D02*
X-202230Y9513880D01*
G01D02*
X-193340Y9504990D01*
G01X-221280Y9478320D02*
X-189530D01*
G01D02*
X-184450Y9488480D01*
G01D02*
X-183180Y9492290D01*
G01D02*
X-195880D01*
G01D02*
X-199690Y9493560D01*
G01D02*
X-209850Y9498640D01*
G01D02*
X-212390Y9496100D01*
G01D02*
X-221280Y9478320D01*
G01X-197150Y9458000D02*
X-204770D01*
G01D02*
X-209850Y9460540D01*
G01D02*
X-212390Y9461810D01*
G01D02*
X-214930D01*
G01D02*
X-216200Y9454190D01*
G01D02*
Y9447840D01*
G01X-244140Y9477050D02*
X-251760Y9491020D01*
G01D02*
X-261920Y9504990D01*
G01D02*
X-264460Y9522770D01*
G01X-227630Y9450380D02*
X-231440Y9460540D01*
G01D02*
X-233980Y9465620D01*
G01X194010Y9540550D02*
X185120Y9521500D01*
G01D02*
X187660Y9508800D01*
G01D02*
X202900Y9516420D01*
G01D02*
Y9520230D01*
G01D02*
X201630Y9526580D01*
G01D02*
X204170Y9531660D01*
G01D02*
X210520D01*
G01D02*
X252430Y9526580D01*
G01D02*
X271480Y9530390D01*
G01D02*
X336250Y9524040D01*
G01D02*
X332440Y9518960D01*
G01D02*
X326090Y9515150D01*
G01D02*
Y9511340D01*
G01D02*
X328630Y9507530D01*
G01D02*
Y9506260D01*
G01D02*
X317200D01*
G01D02*
X295610Y9502450D01*
G01D02*
X305770Y9494830D01*
G01D02*
X331170D01*
G01D02*
X338790Y9498640D01*
G01D02*
X345140Y9515150D01*
G01D02*
X347680Y9517690D01*
G01D02*
X356570Y9521500D01*
G01D02*
X366730Y9524040D01*
G01D02*
X371810Y9530390D01*
G01D02*
X373080Y9538010D01*
G01D02*
X369270D01*
G01D02*
X361650Y9535470D01*
G01D02*
X350220D01*
G01D02*
X331170Y9538010D01*
G01D02*
X318470D01*
G01D02*
X298150Y9536740D01*
G01D02*
X275290Y9544360D01*
G01D02*
X267670Y9543090D01*
G01D02*
X256240Y9538010D01*
G01D02*
X228300D01*
G01D02*
X220680Y9541820D01*
G01D02*
X210520Y9543090D01*
G01D02*
X194010Y9540550D01*
G01X147020Y9569760D02*
X157180Y9564680D01*
G01D02*
X153370Y9557060D01*
G01D02*
X148290Y9551980D01*
G01D02*
X135590Y9549440D01*
G01D02*
X117810Y9551980D01*
G01D02*
Y9549440D01*
G01D02*
X130510Y9541820D01*
G01D02*
Y9539280D01*
G01D02*
X125430Y9538010D01*
G01D02*
X116540D01*
G01D02*
X91140Y9549440D01*
G01D02*
X77170Y9545630D01*
G01D02*
X55580Y9532930D01*
G01D02*
X56850Y9527850D01*
G01D02*
X61930Y9522770D01*
G01D02*
X69550Y9520230D01*
G01D02*
X101300Y9522770D01*
G01D02*
X127970Y9513880D01*
G01D02*
X130510Y9516420D01*
G01D02*
Y9518960D01*
G01D02*
X127970Y9524040D01*
G01D02*
Y9526580D01*
G01D02*
X131780Y9527850D01*
G01D02*
X144480Y9529120D01*
G01D02*
X154640Y9535470D01*
G01D02*
X162260Y9543090D01*
G01D02*
X169880D01*
G01D02*
Y9534200D01*
G01D02*
X173690Y9526580D01*
G01D02*
X182580Y9518960D01*
G01D02*
X183850Y9508800D01*
G01D02*
X178770D01*
G01D02*
X169880Y9511340D01*
G01D02*
X158450Y9527850D01*
G01D02*
X155910D01*
G01D02*
X150830Y9524040D01*
G01D02*
X139400Y9520230D01*
G01D02*
Y9516420D01*
G01D02*
X140670Y9512610D01*
G01D02*
X136860Y9506260D01*
G01D02*
X115270Y9508800D01*
G01D02*
X94950Y9515150D01*
G01D02*
X80980Y9512610D01*
G01D02*
X67010D01*
G01D02*
X53040Y9516420D01*
G01D02*
X47960Y9520230D01*
G01D02*
X45420Y9522770D01*
G01D02*
X36530Y9530390D01*
G01D02*
Y9532930D01*
G01D02*
X45420Y9536740D01*
G01D02*
X59390Y9544360D01*
G01D02*
X73360Y9551980D01*
G01D02*
X86060Y9555790D01*
G01D02*
X94950Y9557060D01*
G01D02*
X102570Y9560870D01*
G01D02*
X108920Y9562140D01*
G01D02*
X117810D01*
G01D02*
X129240Y9559600D01*
G01D02*
X135590D01*
G01D02*
X144480Y9563410D01*
G01D02*
X147020Y9569760D01*
G01X221950Y9593890D02*
X228300Y9591350D01*
G01D02*
X241000Y9576110D01*
G01D02*
X252430Y9565950D01*
G01D02*
X244810D01*
G01D02*
X235920Y9568490D01*
G01D02*
X227030Y9579920D01*
G01D02*
X220680Y9583730D01*
G01D02*
X215600D01*
G01D02*
X210520Y9581190D01*
G01D02*
X205440Y9572300D01*
G01D02*
X192740Y9562140D01*
G01D02*
X186390Y9559600D01*
G01D02*
X168610D01*
G01D02*
X164800Y9565950D01*
G01D02*
X158450Y9568490D01*
G01D02*
X149560Y9573570D01*
G01D02*
X154640Y9577380D01*
G01D02*
X171150D01*
G01D02*
X172420Y9572300D01*
G01D02*
X176230Y9569760D01*
G01D02*
X182580D01*
G01D02*
X191470Y9574840D01*
G01D02*
X207980Y9591350D01*
G01D02*
X215600Y9595160D01*
G01D02*
X221950Y9593890D01*
G01X233380Y9684060D02*
X218140Y9681520D01*
G01D02*
X223220Y9672630D01*
G01D02*
X229570Y9673900D01*
G01D02*
X275290Y9672630D01*
G01D02*
X287990Y9675170D01*
G01D02*
X296880D01*
G01D02*
X303230Y9672630D01*
G01D02*
X310850Y9666280D01*
G01D02*
X308310Y9663740D01*
G01D02*
X300690Y9662470D01*
G01D02*
X281640Y9661200D01*
G01D02*
X275290Y9659930D01*
G01D02*
X268940Y9649770D01*
G01D02*
X263860Y9647230D01*
G01D02*
X224490Y9644690D01*
G01D02*
X200360Y9639610D01*
G01D02*
X192740Y9635800D01*
G01D02*
X188930Y9631990D01*
G01D02*
X191470Y9623100D01*
G01D02*
X197820Y9616750D01*
G01D02*
X205440Y9612940D01*
G01D02*
X216870Y9610400D01*
G01D02*
X228300Y9609130D01*
G01D02*
X242270D01*
G01D02*
X238460Y9600240D01*
G01D02*
X239730Y9588810D01*
G01D02*
X243540Y9581190D01*
G01D02*
X251160Y9573570D01*
G01D02*
X257510Y9568490D01*
G01D02*
X263860Y9573570D01*
G01D02*
X262590Y9578650D01*
G01D02*
X251160Y9585000D01*
G01D02*
X247350Y9588810D01*
G01D02*
X246080Y9592620D01*
G01D02*
Y9595160D01*
G01D02*
X249890Y9598970D01*
G01D02*
X252430Y9600240D01*
G01D02*
X261320Y9601510D01*
G01D02*
X262590Y9602780D01*
G01D02*
X261320Y9609130D01*
G01D02*
X257510Y9612940D01*
G01D02*
X244810Y9618020D01*
G01D02*
X235920Y9619290D01*
G01D02*
X223220Y9620560D01*
G01D02*
X213060Y9623100D01*
G01D02*
X206710Y9626910D01*
G01D02*
X204170Y9628180D01*
G01D02*
Y9629450D01*
G01D02*
X215600Y9633260D01*
G01D02*
X248620Y9635800D01*
G01D02*
X271480Y9638340D01*
G01D02*
X284180Y9642150D01*
G01D02*
X286720Y9652310D01*
G01D02*
X291800D01*
G01D02*
X298150Y9651040D01*
G01D02*
X307040D01*
G01D02*
X313390Y9652310D01*
G01D02*
X319740Y9658660D01*
G01D02*
X338790Y9661200D01*
G01D02*
X351490Y9666280D01*
G01D02*
X360380Y9673900D01*
G01D02*
Y9676440D01*
G01D02*
X354030Y9677710D01*
G01D02*
X343870D01*
G01D02*
X324820Y9675170D01*
G01D02*
X315930D01*
G01D02*
X321010Y9686600D01*
G01D02*
X258780Y9684060D01*
G01D02*
X247350Y9686600D01*
G01D02*
X239730D01*
G01D02*
X233380Y9684060D01*
G01X-142540Y9748830D02*
Y9746290D01*
G01D02*
X-133650Y9738670D01*
G01D02*
X-118410D01*
G01D02*
X-142540Y9724700D01*
G01D02*
Y9722160D01*
G01D02*
X-127300Y9719620D01*
G01D02*
X-110790Y9718350D01*
G01D02*
X-103170Y9714540D01*
G01D02*
X-89200Y9720890D01*
G01D02*
X-56180Y9715810D01*
G01D02*
X-38400Y9723430D01*
G01D02*
X-26970Y9718350D01*
G01D02*
X-10460Y9714540D01*
G01D02*
X20020D01*
G01D02*
X32720Y9720890D01*
G01D02*
X40340Y9723430D01*
G01D02*
X44150D01*
G01D02*
X47960Y9720890D01*
G01D02*
X50500Y9717080D01*
G01D02*
X68280D01*
G01D02*
X112730Y9714540D01*
G01D02*
X119080Y9706920D01*
G01D02*
X126700Y9704380D01*
G01D02*
X131780Y9705650D01*
G01D02*
X136860Y9706920D01*
G01D02*
X138130Y9708190D01*
G01D02*
X140670Y9706920D01*
G01D02*
X145750Y9684060D01*
G01D02*
X158450Y9681520D01*
G01D02*
X177500Y9678980D01*
G01D02*
X194010Y9675170D01*
G01D02*
X199090Y9672630D01*
G01D02*
X218140D01*
G01D02*
X213060Y9681520D01*
G01D02*
X191470Y9690410D01*
G01D02*
X173690Y9691680D01*
G01D02*
X158450Y9694220D01*
G01D02*
X154640Y9696760D01*
G01D02*
X153370Y9701840D01*
G01D02*
X154640Y9705650D01*
G01D02*
X160990Y9708190D01*
G01D02*
Y9714540D01*
G01D02*
X154640Y9715810D01*
G01D02*
X138130Y9720890D01*
G01D02*
X130510Y9718350D01*
G01D02*
X126700Y9719620D01*
G01D02*
X125430Y9725970D01*
G01D02*
X70820Y9727240D01*
G01D02*
X65740Y9729780D01*
G01D02*
X63200Y9734860D01*
G01D02*
X50500D01*
G01D02*
X25100Y9728510D01*
G01D02*
X4780Y9724700D01*
G01D02*
X-10460D01*
G01D02*
X-14270Y9727240D01*
G01D02*
X-30780Y9732320D01*
G01D02*
X-42210Y9748830D01*
G01D02*
X-142540D01*
G01X-189530Y9875830D02*
X-230170Y9893610D01*
G01X-106980Y9818680D02*
X-126030Y9835190D01*
G01D02*
X-151430Y9852970D01*
G01D02*
X-166670Y9863130D01*
G01X-274620Y9758990D02*
X-250490Y9764070D01*
G01D02*
X-240330Y9767880D01*
G01D02*
X-232710Y9769150D01*
G01D02*
X-227630D01*
G01D02*
X-226360Y9760260D01*
G01D02*
X-51100D01*
G01D02*
X-75230Y9788200D01*
G01D02*
X-93010Y9805980D01*
G01X2240Y9503720D02*
X3510Y9494830D01*
G01D02*
X12400Y9477050D01*
G01D02*
X35260Y9478320D01*
G01D02*
Y9497370D01*
G01D02*
X42880D01*
G01D02*
X60660Y9491020D01*
G01D02*
X79710Y9488480D01*
G01D02*
X98760Y9487210D01*
G01D02*
X110190D01*
G01D02*
X135590Y9482130D01*
G01D02*
X173690Y9484670D01*
G01D02*
X202900Y9487210D01*
G01D02*
X219410D01*
G01D02*
X229570Y9493560D01*
G01D02*
X237190D01*
G01D02*
X257510Y9488480D01*
G01D02*
X275290D01*
G01D02*
X299420Y9494830D01*
G01D02*
X290530Y9501180D01*
G01D02*
X274020Y9498640D01*
G01D02*
X260050Y9501180D01*
G01D02*
X235920Y9506260D01*
G01D02*
X232110D01*
G01D02*
X207980Y9498640D01*
G01D02*
X172420Y9493560D01*
G01D02*
X143210D01*
G01D02*
X107650Y9497370D01*
G01D02*
X92410D01*
G01D02*
X69550Y9501180D01*
G01D02*
X47960Y9507530D01*
G01D02*
X40340Y9508800D01*
G01D02*
X18750Y9512610D01*
G01D02*
X12400Y9513880D01*
G01D02*
X9860Y9506260D01*
G01D02*
X2240Y9503720D01*
G01X32720Y9465620D02*
X23830D01*
G01D02*
X13670Y9454190D01*
G01X-63800Y9465620D02*
X11130D01*
G01D02*
X-14270Y9451650D01*
G01D02*
X-34590Y9461810D01*
G01D02*
X-49830Y9458000D01*
G01D02*
X-43480Y9454190D01*
G01D02*
X-30780Y9451650D01*
G01X-61260Y9452920D02*
X-63800Y9465620D01*
G01X-62530Y9478320D02*
X-1570D01*
G01D02*
X-9190Y9504990D01*
G01D02*
X-21890Y9513880D01*
G01D02*
X-24430Y9512610D01*
G01D02*
X-33320Y9507530D01*
G01D02*
X-40940D01*
G01D02*
X-49830Y9508800D01*
G01D02*
X-54910Y9504990D01*
G01D02*
Y9497370D01*
G01D02*
X-52370Y9494830D01*
G01D02*
X-44750Y9496100D01*
G01D02*
X-40940Y9494830D01*
G01D02*
X-42210Y9489750D01*
G01D02*
X-56180Y9487210D01*
G01D02*
X-61260Y9483400D01*
G01D02*
X-62530Y9478320D01*
G01X-282240Y9544360D02*
X-268270Y9545630D01*
G01X-274620Y9564680D02*
X-282240Y9565950D01*
G01D02*
X-297480Y9572300D01*
G01D02*
X-315260D01*
G01D02*
X-329230Y9569760D01*
G01D02*
X-322880Y9564680D01*
G01D02*
X-306370Y9558330D01*
G01D02*
X-287320Y9549440D01*
G01D02*
X-282240Y9544360D01*
G01X-297480Y9534200D02*
X-298750Y9538010D01*
G01D02*
X-310180Y9543090D01*
G01D02*
X-330500Y9549440D01*
G01D02*
X-352090Y9559600D01*
G01D02*
X-355900Y9563410D01*
G01D02*
X-366060Y9564680D01*
G01D02*
X-378760Y9563410D01*
G01D02*
X-387650Y9559600D01*
G01D02*
X-405430Y9558330D01*
G01D02*
X-425750Y9548170D01*
G01D02*
X-434640Y9546900D01*
G01D02*
X-439720D01*
G01D02*
X-444800Y9548170D01*
G01D02*
X-465120Y9544360D01*
G01D02*
X-470200Y9546900D01*
G01D02*
X-489250Y9551980D01*
G01D02*
X-501950D01*
G01X-230170Y9893610D02*
X-293670Y9910120D01*
G01D02*
X-327960Y9916470D01*
G01D02*
X-357170Y9919010D01*
G01X-407970Y9761530D02*
X-411780Y9769150D01*
G01D02*
Y9774230D01*
G01D02*
X-399080D01*
G01D02*
X-358440Y9771690D01*
G01D02*
Y9779310D01*
G01D02*
X-354630Y9785660D01*
G01D02*
X-352090Y9780580D01*
G01D02*
X-349550D01*
G01D02*
X-345740Y9774230D01*
G01D02*
X-339390Y9771690D01*
G01D02*
X-331770Y9770420D01*
G01D02*
X-322880Y9771690D01*
G01D02*
X-311450Y9776770D01*
G01D02*
X-301290Y9783120D01*
G01D02*
X-297480Y9785660D01*
G01D02*
X-293670Y9786930D01*
G01D02*
X-287320D01*
G01D02*
X-284780Y9785660D01*
G01D02*
Y9781850D01*
G01D02*
X-288590Y9774230D01*
G01D02*
X-292400Y9766610D01*
G01D02*
Y9764070D01*
G01D02*
X-274620Y9758990D01*
G01X-498140Y9732320D02*
X-495600D01*
G01D02*
X-491790Y9739940D01*
G01D02*
X-476550Y9741210D01*
G01D02*
X-467660Y9739940D01*
G01D02*
X-458770Y9733590D01*
G01D02*
X-444800D01*
G01D02*
X-437180Y9739940D01*
G01D02*
Y9746290D01*
G01D02*
X-439720Y9748830D01*
M02*
